<?xml version="1.0" encoding="utf-8"?>
<!-- Generator: Adobe Illustrator 14.0.0, SVG Export Plug-In . SVG Version: 6.00 Build 43363)  -->
<!DOCTYPE svg PUBLIC "-//W3C//DTD SVG 1.1//EN" "http://www.w3.org/Graphics/SVG/1.1/DTD/svg11.dtd">
<svg version="1.1" id="Ebene_1" xmlns="http://www.w3.org/2000/svg" xmlns:xlink="http://www.w3.org/1999/xlink" x="0px" y="0px"
	 width="100px" height="100px" viewBox="0 0 100 100" enable-background="new 0 0 100 100" xml:space="preserve">
<circle fill="#B2B2B2" cx="50" cy="50" r="50"/>
<g>
	<g>
		<g>
			<path fill-rule="evenodd" clip-rule="evenodd" d="M69.41,93.907c-5.472,1.806-12.542,0.41-15.307-3.061
				c0.098-1.409,0.573-2.439,0.875-3.645c-11.813-0.343-25.02-0.045-36.591-0.146c0-21.529,0-45.091,0-66.621
				c15.994,0,34.009,0,50.003,0c0.02,4.406-0.016,9.987,0,14.87c1.298-3.463,1.973-7.551,3.061-11.225
				c3.55-2.586,7.784-5.723,11.517-7.872c0.167-0.096,0.251-0.325,0.583-0.292c1.294,0.131,2.06,4.294,2.624,5.977
				c0.313,0.931,0.808,2.124,1.167,3.207c0.31,0.935,0.986,2.45,1.021,3.207c0.084,1.878-1.763,6.239-2.333,8.31
				C80.984,54.938,74.463,76.098,69.41,93.907z M66.786,41.573c1.356-6.063-0.4-12.865,0.292-19.826
				c-13.946-0.243-28.913-0.243-42.859,0c0,21.333,0,42.665,0,63.998c10.011,0.34,20.652,0.049,30.905,0.146
				C58.887,70.833,63.303,57.146,66.786,41.573z M83.697,33.409c1.07-1.796,2.172-3.562,3.207-5.394
				c-0.246-0.969-0.629-1.801-0.875-2.77c-3.746-0.675-7.196-1.647-11.079-2.187c-2.794,0.669-2.739,3.465-2.479,6.998
				c1.313-0.339,1.676-1.629,2.916-2.041c0.249,1.014,0.464,2.063,0.583,3.208c1.074-0.627,1.747-1.655,2.916-2.187
				c0.515,1.186,0.805,2.596,1.166,3.936c1.096-0.412,2.312-2.741,3.79-2.77C83.958,31.34,83.54,32.714,83.697,33.409z"/>
			<path fill-rule="evenodd" clip-rule="evenodd" d="M51.917,31.223c0.378-0.614,0.864,0.011,1.458,0
				c0.869,1.368,1.312,3.128,1.312,5.685c0,2.033-0.217,5.848-2.187,5.832C49.885,42.717,49.711,32.795,51.917,31.223z"/>
			<path fill-rule="evenodd" clip-rule="evenodd" d="M33.111,31.368c3.769-1.935,3.936,12.162,0.875,12.391
				c-1.892,0.142-2.321-3.672-2.333-6.123C31.641,34.934,32.141,32.401,33.111,31.368z"/>
			<path fill-rule="evenodd" clip-rule="evenodd" d="M66.641,41.864c-0.573,3.67-11.31,3.736-11.371-0.438
				C55.206,37.115,67.407,36.961,66.641,41.864z"/>
			<path fill-rule="evenodd" clip-rule="evenodd" d="M47.981,45.655c0.448-1.182-0.368-2.726,1.021-2.916
				c0.914,0.627,0.341,3.019-0.146,3.644l-0.416-0.39L47.981,45.655z"/>
			<g>
				<path fill-rule="evenodd" clip-rule="evenodd" fill="none" stroke="#000000" stroke-width="1.175" stroke-linecap="round" d="
					M48.44,45.993c-1.743,5.118-9.167,2.528-8.404-2.452"/>
			</g>
		</g>
	</g>
	<g>
		<g>
			<path fill="none" stroke="#000000" stroke-width="0.5" d="M69.41,93.907c-5.472,1.806-12.542,0.41-15.307-3.061
				c0.098-1.409,0.573-2.439,0.875-3.645c-11.813-0.343-25.02-0.045-36.591-0.146c0-21.529,0-45.091,0-66.621
				c15.994,0,34.009,0,50.003,0c0.02,4.406-0.016,9.987,0,14.87c1.298-3.463,1.973-7.551,3.061-11.225
				c3.55-2.586,7.784-5.723,11.517-7.872c0.167-0.096,0.251-0.325,0.583-0.292c1.294,0.131,2.06,4.294,2.624,5.977
				c0.313,0.931,0.808,2.124,1.167,3.207c0.31,0.935,0.986,2.45,1.021,3.207c0.084,1.878-1.763,6.239-2.333,8.31
				C80.984,54.938,74.463,76.098,69.41,93.907z M66.786,41.573c1.356-6.063-0.4-12.865,0.292-19.826
				c-13.946-0.243-28.913-0.243-42.859,0c0,21.333,0,42.665,0,63.998c10.011,0.34,20.652,0.049,30.905,0.146
				C58.887,70.833,63.303,57.146,66.786,41.573z M83.697,33.409c1.07-1.796,2.172-3.562,3.207-5.394
				c-0.246-0.969-0.629-1.801-0.875-2.77c-3.746-0.675-7.196-1.647-11.079-2.187c-2.794,0.669-2.739,3.465-2.479,6.998
				c1.313-0.339,1.676-1.629,2.916-2.041c0.249,1.014,0.464,2.063,0.583,3.208c1.074-0.627,1.747-1.655,2.916-2.187
				c0.515,1.186,0.805,2.596,1.166,3.936c1.096-0.412,2.312-2.741,3.79-2.77C83.958,31.34,83.54,32.714,83.697,33.409z"/>
			<path fill="none" stroke="#000000" stroke-width="0.5" d="M51.917,31.223c0.378-0.614,0.864,0.011,1.458,0
				c0.869,1.368,1.312,3.128,1.312,5.685c0,2.033-0.217,5.848-2.187,5.832C49.885,42.717,49.711,32.795,51.917,31.223z"/>
			<path fill="none" stroke="#000000" stroke-width="0.5" d="M33.111,31.368c3.769-1.935,3.936,12.162,0.875,12.391
				c-1.892,0.142-2.321-3.672-2.333-6.123C31.641,34.934,32.141,32.401,33.111,31.368z"/>
			<path fill="none" stroke="#000000" stroke-width="0.5" d="M66.641,41.864c-0.573,3.67-11.31,3.736-11.371-0.438
				C55.206,37.115,67.407,36.961,66.641,41.864z"/>
			<path fill="none" stroke="#000000" stroke-width="0.5" d="M47.981,45.655c0.448-1.182-0.368-2.726,1.021-2.916
				c0.914,0.627,0.341,3.019-0.146,3.644l-0.416-0.39L47.981,45.655z"/>
			<g>
				<path fill="none" stroke="#000000" stroke-width="0.5" d="M48.44,45.993c-1.743,5.118-9.167,2.528-8.404-2.452"/>
			</g>
		</g>
	</g>
</g>
</svg>
