<?xml version="1.0" encoding="utf-8"?>
<!-- Generator: Adobe Illustrator 14.0.0, SVG Export Plug-In . SVG Version: 6.00 Build 43363)  -->
<!DOCTYPE svg PUBLIC "-//W3C//DTD SVG 1.1//EN" "http://www.w3.org/Graphics/SVG/1.1/DTD/svg11.dtd">
<svg version="1.1" id="Ebene_1" xmlns="http://www.w3.org/2000/svg" xmlns:xlink="http://www.w3.org/1999/xlink" x="0px" y="0px"
	 width="100px" height="100px" viewBox="0 0 100 100" enable-background="new 0 0 100 100" xml:space="preserve">
<circle fill="#B2B2B2" cx="50" cy="50" r="50"/>
<g>
	<g>
		<path fill-rule="evenodd" clip-rule="evenodd" d="M66.86,59.39c-1.036-0.495-1.21,0.773-1.872,1.07l-0.376-0.51l-0.561-0.293
			c-0.121-0.948-0.741-1.397-0.936-2.273l0.534-0.4l0.401-0.535c0.532,0.404,0.616,1.256,1.07,1.738
			c0.787-0.104,1.064-0.718,1.604-1.069l0.401,0.534l0.534,0.401c-0.037,0.216,0.127,0.23,0.134,0.401l-0.534,0.401L66.86,59.39z"/>
		<path fill-rule="evenodd" clip-rule="evenodd" d="M25.273,52.838l-0.535,0.401c-0.476-1.085-0.724-2.396-0.802-3.878l0.44-0.782
			l-0.574-0.689c-0.101-2.596,0.496-4.496,0.802-6.686c-0.32-0.304-1.03-0.218-1.337-0.535l0.401-0.535v-0.668
			c0.617-0.082,0.77,0.3,1.337,0.268c0.288-0.426,0.371-1.056,0.669-1.471c-1.122-0.5-2.998-0.645-5.082-1.203
			c-1.338-0.358-4.29-0.98-4.413-1.738c-0.177-1.095,1.381-1.13,2.006-1.739l0.401,0.535l0.535,0.401
			c0.04,0.352-0.519,0.105-0.401,0.535c8.633,2.242,18.458,4.007,29.017,3.878l0.535-0.401l0.401-0.535
			c0.706,0.498,1.438,0.968,2.005,1.604l-0.534,0.401l-0.401,0.535c-8.13-0.027-15.469-0.844-22.465-2.006
			c-2.083,3.423-2.626,9.741-1.337,14.308H25.273z"/>
		<path fill-rule="evenodd" clip-rule="evenodd" d="M30.509,30.68l-0.689-0.574c0.058-0.745,0.625-0.979,0.535-1.872l0.972-0.118
			l0.231-0.952c1.062-0.587,1.752-1.546,3.209-1.738c-0.359-0.949-0.721-2.886,0-3.744l0.535,0.401h0.669
			c-0.82,2.472,0.99,4.721,3.744,4.011v0.669l0.401,0.535c0.819,0.964,2.45,1.116,3.343,2.006l-0.535,0.401l-0.401,0.535
			c-2.564-1.18-5.016-2.473-7.89-3.343c-1.456,0.772-2.775,1.682-3.343,3.343c3.123,0.71,6.173,1.493,8.691,2.808l-0.401,0.535
			v0.669c-2.913-1.01-5.703-2.142-9.093-2.674L30.509,30.68z"/>
		<path fill-rule="evenodd" clip-rule="evenodd" d="M30.488,40.669c0.007,1.281,0.569,5.237-0.668,5.349
			c-1.391,0.125-0.884-4.823,0-5.616C30.152,40.381,30.234,40.612,30.488,40.669z"/>
		<path fill-rule="evenodd" clip-rule="evenodd" d="M39.715,41.07c0.312,1.374,0.713,4.933-0.268,5.884
			c-1.64-0.444-0.958-4.622-0.535-5.884C39.18,41.07,39.448,41.07,39.715,41.07z"/>
		<path fill-rule="evenodd" clip-rule="evenodd" d="M44.93,45.884c1.732-0.22,6.167-0.162,6.285,2.006
			c0.171,3.131-9.557,3.343-9.761,0.268C41.344,46.504,42.898,46.143,44.93,45.884z"/>
		<path fill-rule="evenodd" clip-rule="evenodd" d="M35.169,50.431c-0.156-0.021-0.238,0.03-0.268,0.134
			c-1.371-0.011-1.103-1.661-1.204-2.942C35.106,46.626,35.527,49.249,35.169,50.431z"/>
		<path fill-rule="evenodd" clip-rule="evenodd" d="M41.721,76.372c0.351-1.343,0.405-2.982,1.204-3.878
			c2.285-1.214,5.818-3.215,8.558-0.668l-0.535,0.401l-0.4,0.534c-0.696-0.197-1.675-0.818-2.273-0.668
			c1.015,0.554,1.63,2.038,1.471,3.343l-0.735,0.59l0.334,0.881c0.325,0.834,0.594,1.724,0.936,2.541
			c0.504-0.744,1.261-1.235,1.605-2.14l0.916-0.254l0.02-0.95c0.09,0,0.179,0,0.268,0c0.063-0.473,0.6-0.47,0.535-1.069l0.535-0.401
			l0.4-0.534c0.528,0.318,0.831,0.863,1.204,1.337l-0.535,0.401l-0.401,0.534c-0.089,0-0.178,0-0.268,0
			c-1.412,2.064-3.119,3.834-4.68,5.75l-0.221,0.946l0.89,0.391c0.563,1.154,1.589,2.479,1.337,4.012
			c-3.746,0.472-9.129,0.27-10.564,3.477l-0.535,0.401l-0.401,0.535c-1.769-1.689-1.459-5.567-0.936-7.89l0.535-0.401l0.401-0.534
			c0.991,1.148,1.876,2.402,2.674,3.744c0.628-0.219,0.91-0.784,1.471-1.07l0.401,0.535l0.535,0.401
			c1.287,0.082,2.962-0.604,4.814-0.401c-0.491-1.024-0.598-2.433-2.005-2.541l-0.401-0.534l-0.535-0.401
			c0.546-0.836,1.391-1.373,1.872-2.273c-0.641-0.918-0.773-2.347-1.337-3.343c-1.792,0.672-4.062-0.785-5.215,0.134l-0.401-0.535
			L41.721,76.372z M48.273,75.169c0.704-2.919-5.377-3.095-4.814,0.268C44.688,75.754,47.522,76.363,48.273,75.169z M40.785,89.209
			c0.316-0.529,0.899-0.794,1.337-1.203c-0.37-0.833-0.917-1.49-1.471-2.14C40.334,86.769,40.2,88.497,40.785,89.209z"/>
		<path fill-rule="evenodd" clip-rule="evenodd" d="M60.596,85.521l0.648,0.613c0.547,1.625,0.865,4.115-0.401,5.215l-0.401-0.534
			l-0.535-0.401c0.828-3.359-0.88-7.32-2.272-9.762l-0.401-0.535l-0.535-0.4c0.059-0.165,0.171-0.275,0.401-0.268l1.003,0.2
			l1.003,0.2c0.547,1.637,1.394,2.976,1.738,4.814L60.596,85.521z"/>
		<g>
			<path fill-rule="evenodd" clip-rule="evenodd" fill="none" stroke="#000000" stroke-width="1.3281" stroke-linecap="round" d="
				M64.612,59.95c-9.993,14.487-35.145,10.011-39.339-7.112"/>
			<path fill-rule="evenodd" clip-rule="evenodd" fill="none" stroke="#000000" stroke-width="1.3376" stroke-linecap="round" d="
				M24.376,48.58c-3.464,1.361-8.828-0.174-8.795-4.226c0.028-3.511,4.687-5.596,8.088-4.219"/>
			<path fill-rule="evenodd" clip-rule="evenodd" fill="none" stroke="#000000" stroke-width="1.3671" stroke-linecap="round" d="
				M18.587,34.117c3.607-2.221,7.825-2.917,11.922-3.438"/>
			<path fill-rule="evenodd" clip-rule="evenodd" fill="none" stroke="#000000" stroke-width="1.3599" stroke-linecap="round" d="
				M31.327,28.115c-1.249-5.196-0.347-10.455,0.576-15.008C33.965,2.931,42.44,1.421,50.229,7.243
				c2.941,2.198,5.612,5.326,8.209,7.97c8.297,8.446,15.081,20.86,16.521,31.893c0.304,2.327,0.79,6.793,0.177,9.655
				c-0.411,1.918-1.006,4.136-3.239,3.952c-1.755-0.145-3.16-0.952-4.636-1.857"/>
			<path fill-rule="evenodd" clip-rule="evenodd" fill="none" stroke="#000000" stroke-width="1.3337" stroke-linecap="round" d="
				M35.302,22.083c3.066-6.5,11.028,2.092,4.413,4.68"/>
			<path fill-rule="evenodd" clip-rule="evenodd" fill="none" stroke="#000000" stroke-width="1.3329" stroke-linecap="round" d="
				M67.128,57.651c0.674-0.84,1.109-1.916,1.137-3.002c-6.583-9.845-14.931-18.979-25.34-24.945"/>
			<path fill-rule="evenodd" clip-rule="evenodd" fill="none" stroke="#000000" stroke-width="1.321" stroke-linecap="round" d="
				M48.273,38.53c-2.713-1.945-5.582-3.702-8.692-4.948"/>
			<path fill-rule="evenodd" clip-rule="evenodd" fill="none" stroke="#000000" stroke-width="1.3276" stroke-linecap="round" d="
				M63.65,56.983c-3.502-6.376-7.865-12.329-13.505-16.982"/>
			<path fill-rule="evenodd" clip-rule="evenodd" fill="none" stroke="#000000" stroke-width="1.358" stroke-linecap="round" d="
				M58.102,79.648c3.986-2.819,7.445,4.967,2.494,5.872"/>
			<path fill-rule="evenodd" clip-rule="evenodd" fill="none" stroke="#000000" stroke-width="1.3713" stroke-linecap="round" d="
				M60.441,90.814c-4.899,4.605-14.757,5.685-19.656,0.534"/>
			<path fill-rule="evenodd" clip-rule="evenodd" fill="none" stroke="#000000" stroke-width="1.3249" stroke-linecap="round" d="
				M39.982,83.593c-2.82-2.295,0.989-4.817,2.273-6.819"/>
			<path fill-rule="evenodd" clip-rule="evenodd" fill="none" stroke="#000000" stroke-width="1.3754" stroke-linecap="round" d="
				M49.009,76.026c1.221,0.525,2.693,0.285,3.791,1.028"/>
			<path fill-rule="evenodd" clip-rule="evenodd" fill="none" stroke="#000000" stroke-width="1.3253" stroke-linecap="round" d="
				M54.157,74.634c-0.999-0.888-2.083-1.678-3.21-2.406"/>
			<path fill-rule="evenodd" clip-rule="evenodd" fill="none" stroke="#000000" stroke-width="1.334" stroke-linecap="round" d="
				M58.102,79.648c-0.868-1.347-1.754-2.666-2.875-3.811"/>
			<path fill-rule="evenodd" clip-rule="evenodd" fill="none" stroke="#000000" stroke-width="1.3479" stroke-linecap="round" d="
				M44.93,86.268c1.046-0.968,1.919-2.087,2.942-3.075"/>
			<path fill-rule="evenodd" clip-rule="evenodd" fill="none" stroke="#000000" stroke-width="1.3381" stroke-linecap="round" d="
				M57.232,80.116c-2.255,1.573-4.976,2.274-7.576,2.952"/>
		</g>
	</g>
</g>
</svg>
